<?xml version="1.0" encoding="UTF-8"?><svg xmlns="http://www.w3.org/2000/svg" xmlns:xlink="http://www.w3.org/1999/xlink" fill-opacity="1" color-rendering="auto" color-interpolation="auto" text-rendering="auto" stroke="black" stroke-linecap="square" width="766" stroke-miterlimit="10" shape-rendering="auto" stroke-opacity="1" fill="black" stroke-dasharray="none" font-weight="normal" stroke-width="1" height="500" font-family="'Dialog'" font-style="normal" stroke-linejoin="miter" font-size="12px" stroke-dashoffset="0" image-rendering="auto">
  <!--Generated by ySVG 2.5-->
  <defs id="genericDefs"/>
  <g>
    <defs id="defs1">
      <clipPath clipPathUnits="userSpaceOnUse" id="clipPath1">
        <path d="M0 0 L766 0 L766 500 L0 500 L0 0 Z"/>
      </clipPath>
      <clipPath clipPathUnits="userSpaceOnUse" id="clipPath2">
        <path d="M150 267 L916 267 L916 767 L150 767 L150 267 Z"/>
      </clipPath>
      <clipPath clipPathUnits="userSpaceOnUse" id="clipPath3">
        <path d="M252 282 L252 339 L436 339 L436 282 Z"/>
      </clipPath>
      <clipPath clipPathUnits="userSpaceOnUse" id="clipPath4">
        <path d="M272 382 L272 476 L417 476 L417 382 Z"/>
      </clipPath>
      <clipPath clipPathUnits="userSpaceOnUse" id="clipPath5">
        <path d="M756 382 L756 476 L901 476 L901 382 Z"/>
      </clipPath>
      <clipPath clipPathUnits="userSpaceOnUse" id="clipPath6">
        <path d="M272 556 L272 635 L417 635 L417 556 Z"/>
      </clipPath>
      <clipPath clipPathUnits="userSpaceOnUse" id="clipPath7">
        <path d="M447 447 L447 550 L725 550 L725 447 Z"/>
      </clipPath>
      <clipPath clipPathUnits="userSpaceOnUse" id="clipPath8">
        <path d="M294 667 L294 695 L394 695 L394 667 Z"/>
      </clipPath>
      <clipPath clipPathUnits="userSpaceOnUse" id="clipPath9">
        <path d="M504 352 L504 417 L669 417 L669 352 Z"/>
      </clipPath>
    </defs>
    <g fill="white" text-rendering="geometricPrecision" shape-rendering="geometricPrecision" transform="translate(-150,-267)" stroke="white">
      <rect x="150" width="766" height="500" y="267" clip-path="url(#clipPath2)" stroke="none"/>
    </g>
    <g fill="rgb(255,204,0)" text-rendering="geometricPrecision" shape-rendering="geometricPrecision" transform="matrix(1,0,0,1,-150,-267)" stroke="rgb(255,204,0)">
      <rect x="253" width="182" height="55" y="283" clip-path="url(#clipPath2)" stroke="none"/>
      <rect x="252" y="282" clip-path="url(#clipPath2)" fill="yellow" width="1" height="57" stroke="none"/>
      <rect x="253" y="282" clip-path="url(#clipPath2)" fill="yellow" width="182" height="1" stroke="none"/>
      <rect x="253" y="338" clip-path="url(#clipPath2)" fill="rgb(178,142,0)" width="183" height="1" stroke="none"/>
      <rect x="435" y="282" clip-path="url(#clipPath2)" fill="rgb(178,142,0)" width="1" height="56" stroke="none"/>
    </g>
    <g font-size="13px" stroke-linecap="butt" transform="matrix(1,0,0,1,-150,-267)" text-rendering="geometricPrecision" font-family="sans-serif" shape-rendering="geometricPrecision" font-weight="bold" stroke-miterlimit="1.45">
      <text x="320.928" xml:space="preserve" y="299.0669" clip-path="url(#clipPath3)" stroke="none">Config</text>
    </g>
    <g text-rendering="geometricPrecision" shape-rendering="geometricPrecision" transform="matrix(1,0,0,1,-150,-267)">
      <line y2="307" fill="none" x1="253" clip-path="url(#clipPath3)" x2="435" y1="307"/>
      <text stroke-linecap="butt" x="257.5" y="323.2715" clip-path="url(#clipPath3)" font-family="sans-serif" stroke="none" stroke-miterlimit="1.45" xml:space="preserve">+ debugEnabled: Boolean</text>
      <line y2="331" fill="none" x1="253" clip-path="url(#clipPath3)" x2="435" y1="331"/>
      <rect x="273" y="383" clip-path="url(#clipPath2)" fill="rgb(255,204,0)" width="143" height="92" stroke="none"/>
      <rect x="272" y="382" clip-path="url(#clipPath2)" fill="yellow" width="1" height="94" stroke="none"/>
      <rect x="273" y="382" clip-path="url(#clipPath2)" fill="yellow" width="143" height="1" stroke="none"/>
      <rect x="273" y="475" clip-path="url(#clipPath2)" fill="rgb(178,142,0)" width="144" height="1" stroke="none"/>
      <rect x="416" y="382" clip-path="url(#clipPath2)" fill="rgb(178,142,0)" width="1" height="93" stroke="none"/>
    </g>
    <g font-size="13px" stroke-linecap="butt" transform="matrix(1,0,0,1,-150,-267)" text-rendering="geometricPrecision" font-family="sans-serif" shape-rendering="geometricPrecision" font-weight="bold" stroke-miterlimit="1.45">
      <text x="300.717" xml:space="preserve" y="399.0669" clip-path="url(#clipPath4)" stroke="none">UserService</text>
    </g>
    <g text-rendering="geometricPrecision" shape-rendering="geometricPrecision" transform="matrix(1,0,0,1,-150,-267)">
      <line y2="407" fill="none" x1="273" clip-path="url(#clipPath4)" x2="416" y1="407"/>
      <text stroke-linecap="butt" x="277" y="423.2715" clip-path="url(#clipPath4)" font-family="sans-serif" stroke="none" stroke-miterlimit="1.45" xml:space="preserve">+ config: Config</text>
      <text stroke-linecap="butt" x="277" y="437.2402" clip-path="url(#clipPath4)" font-family="sans-serif" stroke="none" stroke-miterlimit="1.45" xml:space="preserve">+ logger: Logger</text>
      <text stroke-linecap="butt" x="277" y="451.209" clip-path="url(#clipPath4)" font-family="sans-serif" stroke="none" stroke-miterlimit="1.45" xml:space="preserve">+ database: Database</text>
      <line y2="459" fill="none" x1="273" clip-path="url(#clipPath4)" x2="416" y1="459"/>
      <rect x="757" y="383" clip-path="url(#clipPath2)" fill="rgb(255,204,0)" width="143" height="92" stroke="none"/>
      <rect x="756" y="382" clip-path="url(#clipPath2)" fill="yellow" width="1" height="94" stroke="none"/>
      <rect x="757" y="382" clip-path="url(#clipPath2)" fill="yellow" width="143" height="1" stroke="none"/>
      <rect x="757" y="475" clip-path="url(#clipPath2)" fill="rgb(178,142,0)" width="144" height="1" stroke="none"/>
      <rect x="900" y="382" clip-path="url(#clipPath2)" fill="rgb(178,142,0)" width="1" height="93" stroke="none"/>
    </g>
    <g font-size="13px" stroke-linecap="butt" transform="matrix(1,0,0,1,-150,-267)" text-rendering="geometricPrecision" font-family="sans-serif" shape-rendering="geometricPrecision" font-weight="bold" stroke-miterlimit="1.45">
      <text x="769.416" xml:space="preserve" y="399.0669" clip-path="url(#clipPath5)" stroke="none">MessageService</text>
    </g>
    <g text-rendering="geometricPrecision" shape-rendering="geometricPrecision" transform="matrix(1,0,0,1,-150,-267)">
      <line y2="407" fill="none" x1="757" clip-path="url(#clipPath5)" x2="900" y1="407"/>
      <text stroke-linecap="butt" x="761" y="423.2715" clip-path="url(#clipPath5)" font-family="sans-serif" stroke="none" stroke-miterlimit="1.45" xml:space="preserve">+ config: Config</text>
      <text stroke-linecap="butt" x="761" y="437.2402" clip-path="url(#clipPath5)" font-family="sans-serif" stroke="none" stroke-miterlimit="1.45" xml:space="preserve">+ logger: Logger</text>
      <text stroke-linecap="butt" x="761" y="451.209" clip-path="url(#clipPath5)" font-family="sans-serif" stroke="none" stroke-miterlimit="1.45" xml:space="preserve">+ database: Database</text>
      <line y2="459" fill="none" x1="757" clip-path="url(#clipPath5)" x2="900" y1="459"/>
      <rect x="273" y="557" clip-path="url(#clipPath2)" fill="rgb(255,204,0)" width="143" height="77" stroke="none"/>
      <rect x="272" y="556" clip-path="url(#clipPath2)" fill="yellow" width="1" height="79" stroke="none"/>
      <rect x="273" y="556" clip-path="url(#clipPath2)" fill="yellow" width="143" height="1" stroke="none"/>
      <rect x="273" y="634" clip-path="url(#clipPath2)" fill="rgb(178,142,0)" width="144" height="1" stroke="none"/>
      <rect x="416" y="556" clip-path="url(#clipPath2)" fill="rgb(178,142,0)" width="1" height="78" stroke="none"/>
    </g>
    <g font-size="13px" stroke-linecap="butt" transform="matrix(1,0,0,1,-150,-267)" text-rendering="geometricPrecision" font-family="sans-serif" shape-rendering="geometricPrecision" font-weight="bold" stroke-miterlimit="1.45">
      <text x="309.9084" xml:space="preserve" y="573.0669" clip-path="url(#clipPath6)" stroke="none">Database</text>
    </g>
    <g text-rendering="geometricPrecision" shape-rendering="geometricPrecision" transform="matrix(1,0,0,1,-150,-267)">
      <line y2="581" fill="none" x1="273" clip-path="url(#clipPath6)" x2="416" y1="581"/>
      <text stroke-linecap="butt" x="277" y="597.2715" clip-path="url(#clipPath6)" font-family="sans-serif" stroke="none" stroke-miterlimit="1.45" xml:space="preserve">+ databaseUri: String</text>
      <text stroke-linecap="butt" x="277" y="611.2402" clip-path="url(#clipPath6)" font-family="sans-serif" stroke="none" stroke-miterlimit="1.45" xml:space="preserve">+ config: Config</text>
      <line y2="619" fill="none" x1="273" clip-path="url(#clipPath6)" x2="416" y1="619"/>
      <rect x="448" y="448" clip-path="url(#clipPath2)" fill="rgb(255,204,0)" width="276" height="101" stroke="none"/>
      <rect x="447" y="447" clip-path="url(#clipPath2)" fill="yellow" width="1" height="103" stroke="none"/>
      <rect x="448" y="447" clip-path="url(#clipPath2)" fill="yellow" width="276" height="1" stroke="none"/>
      <rect x="448" y="549" clip-path="url(#clipPath2)" fill="rgb(178,142,0)" width="277" height="1" stroke="none"/>
      <rect x="724" y="447" clip-path="url(#clipPath2)" fill="rgb(178,142,0)" width="1" height="102" stroke="none"/>
    </g>
    <g font-size="13px" stroke-linecap="butt" transform="matrix(1,0,0,1,-150,-267)" text-rendering="geometricPrecision" font-family="sans-serif" shape-rendering="geometricPrecision" font-weight="bold" stroke-miterlimit="1.45">
      <text x="544.5403" xml:space="preserve" y="464.0669" clip-path="url(#clipPath7)" stroke="none">Application</text>
    </g>
    <g text-rendering="geometricPrecision" shape-rendering="geometricPrecision" transform="matrix(1,0,0,1,-150,-267)">
      <line y2="472" fill="none" x1="448" clip-path="url(#clipPath7)" x2="724" y1="472"/>
      <text stroke-linecap="butt" x="452" y="488.2715" clip-path="url(#clipPath7)" font-family="sans-serif" stroke="none" stroke-miterlimit="1.45" xml:space="preserve">+ userService: UserService</text>
      <text stroke-linecap="butt" x="452" y="502.2402" clip-path="url(#clipPath7)" font-family="sans-serif" stroke="none" stroke-miterlimit="1.45" xml:space="preserve">+ messageService: MessageService</text>
      <text stroke-linecap="butt" x="452" y="516.209" clip-path="url(#clipPath7)" font-family="sans-serif" stroke="none" stroke-miterlimit="1.45" xml:space="preserve">+ logger: Logger</text>
      <line y2="524" fill="none" x1="448" clip-path="url(#clipPath7)" x2="724" y1="524"/>
      <text stroke-linecap="butt" x="452" y="540.1777" clip-path="url(#clipPath7)" font-family="sans-serif" stroke="none" stroke-miterlimit="1.45" xml:space="preserve">+ run()</text>
      <rect x="295" y="668" clip-path="url(#clipPath2)" fill="rgb(153,153,153)" width="98" height="26" stroke="none"/>
      <rect x="294" y="667" clip-path="url(#clipPath2)" fill="rgb(218,218,218)" width="1" height="28" stroke="none"/>
      <rect x="295" y="667" clip-path="url(#clipPath2)" fill="rgb(218,218,218)" width="98" height="1" stroke="none"/>
      <rect x="295" y="694" clip-path="url(#clipPath2)" fill="rgb(107,107,107)" width="99" height="1" stroke="none"/>
      <rect x="393" y="667" clip-path="url(#clipPath2)" fill="rgb(107,107,107)" width="1" height="27" stroke="none"/>
    </g>
    <g font-size="13px" stroke-linecap="butt" transform="matrix(1,0,0,1,-150,-267)" text-rendering="geometricPrecision" font-family="sans-serif" shape-rendering="geometricPrecision" font-weight="bold" stroke-miterlimit="1.45">
      <text x="299.9395" xml:space="preserve" y="684.0669" clip-path="url(#clipPath8)" stroke="none">databaseUri</text>
    </g>
    <g fill="rgb(204,255,204)" text-rendering="geometricPrecision" shape-rendering="geometricPrecision" transform="matrix(1,0,0,1,-150,-267)" stroke="rgb(204,255,204)">
      <rect x="505" width="163" height="63" y="353" clip-path="url(#clipPath2)" stroke="none"/>
      <rect x="504" y="352" clip-path="url(#clipPath2)" fill="white" width="1" height="65" stroke="none"/>
      <rect x="505" y="352" clip-path="url(#clipPath2)" fill="white" width="163" height="1" stroke="none"/>
      <rect x="505" y="416" clip-path="url(#clipPath2)" fill="rgb(142,178,142)" width="164" height="1" stroke="none"/>
      <rect x="668" y="352" clip-path="url(#clipPath2)" fill="rgb(142,178,142)" width="1" height="64" stroke="none"/>
    </g>
    <g font-size="13px" stroke-linecap="butt" transform="matrix(1,0,0,1,-150,-267)" text-rendering="geometricPrecision" font-family="sans-serif" shape-rendering="geometricPrecision" font-weight="bold" stroke-miterlimit="1.45">
      <text x="560.9729" xml:space="preserve" y="369.0669" clip-path="url(#clipPath9)" stroke="none">Logger</text>
    </g>
    <g text-rendering="geometricPrecision" shape-rendering="geometricPrecision" transform="matrix(1,0,0,1,-150,-267)">
      <line y2="377" fill="none" x1="505" clip-path="url(#clipPath9)" x2="668" y1="377"/>
      <line y2="387" fill="none" x1="505" clip-path="url(#clipPath9)" x2="668" y1="387"/>
      <text stroke-linecap="butt" x="509" y="403.2715" clip-path="url(#clipPath9)" font-family="sans-serif" stroke="none" stroke-miterlimit="1.45" xml:space="preserve">+ log(message: String)</text>
      <rect x="703" y="642" clip-path="url(#clipPath2)" fill="rgb(255,204,0)" width="123" height="30" stroke="none"/>
      <rect stroke-linecap="butt" x="703" y="642" clip-path="url(#clipPath2)" fill="none" width="123" height="30" stroke-miterlimit="1.45"/>
      <text stroke-linecap="butt" x="736.2285" y="661.1543" clip-path="url(#clipPath2)" font-family="sans-serif" stroke="none" stroke-miterlimit="1.45" xml:space="preserve">Singleton</text>
      <rect x="703" y="682" clip-path="url(#clipPath2)" fill="rgb(204,255,204)" width="123" height="30" stroke="none"/>
      <rect stroke-linecap="butt" x="703" y="682" clip-path="url(#clipPath2)" fill="none" width="123" height="30" stroke-miterlimit="1.45"/>
      <text stroke-linecap="butt" x="739.5596" y="701.1543" clip-path="url(#clipPath2)" font-family="sans-serif" stroke="none" stroke-miterlimit="1.45" xml:space="preserve">Provider</text>
      <rect x="703" y="722" clip-path="url(#clipPath2)" fill="rgb(153,153,153)" width="123" height="30" stroke="none"/>
      <rect stroke-linecap="butt" x="703" y="722" clip-path="url(#clipPath2)" fill="none" width="123" height="30" stroke-miterlimit="1.45"/>
      <text stroke-linecap="butt" x="734.0898" y="741.1543" clip-path="url(#clipPath2)" font-family="sans-serif" stroke="none" stroke-miterlimit="1.45" xml:space="preserve">Konstante</text>
      <path fill="none" stroke-miterlimit="1.45" d="M344.5 338.9967 L344.5 374.0208" clip-path="url(#clipPath2)" stroke-linecap="butt"/>
      <path stroke-miterlimit="1.45" d="M344.5 382.0208 L349.5 370.0208 L344.5 373.0208 L339.5 370.0208 Z" clip-path="url(#clipPath2)" stroke-linecap="butt" stroke="none"/>
      <path fill="none" stroke-miterlimit="1.45" d="M436.5203 310.5 L828.5 310.5 L828.5 373.9877" clip-path="url(#clipPath2)" stroke-linecap="butt"/>
      <path stroke-miterlimit="1.45" d="M828.5 381.9877 L833.5 369.9877 L828.5 372.9877 L823.5 369.9877 Z" clip-path="url(#clipPath2)" stroke-linecap="butt" stroke="none"/>
      <path fill="none" stroke-miterlimit="1.45" d="M252.515 310.5 L165 310.5 L165 595.5 L263.9725 595.5" clip-path="url(#clipPath2)" stroke-linecap="butt"/>
      <path stroke-miterlimit="1.45" d="M271.9725 595.5 L259.9725 590.5 L262.9725 595.5 L259.9725 600.5 Z" clip-path="url(#clipPath2)" stroke-linecap="butt" stroke="none"/>
      <path fill="none" stroke-miterlimit="1.45" d="M344.5 556.0294 L344.5 483.9848" clip-path="url(#clipPath2)" stroke-linecap="butt"/>
      <path stroke-miterlimit="1.45" d="M344.5 475.9848 L339.5 487.9848 L344.5 484.9848 L349.5 487.9848 Z" clip-path="url(#clipPath2)" stroke-linecap="butt" stroke="none"/>
      <path fill="none" stroke-miterlimit="1.45" d="M417.0232 595.5 L828.5 595.5 L828.5 484.0314" clip-path="url(#clipPath2)" stroke-linecap="butt"/>
      <path stroke-miterlimit="1.45" d="M828.5 476.0314 L823.5 488.0314 L828.5 485.0314 L833.5 488.0314 Z" clip-path="url(#clipPath2)" stroke-linecap="butt" stroke="none"/>
      <path fill="none" stroke-miterlimit="1.45" d="M416.9913 449.8619 L439.3007 456.2822" clip-path="url(#clipPath2)" stroke-linecap="butt"/>
      <path stroke-miterlimit="1.45" d="M446.9887 458.4947 L436.8395 450.371 L438.3397 456.0056 L434.0739 459.981 Z" clip-path="url(#clipPath2)" stroke-linecap="butt" stroke="none"/>
      <path fill="none" stroke-miterlimit="1.45" d="M756.0046 449.777 L732.6907 456.4587" clip-path="url(#clipPath2)" stroke-linecap="butt"/>
      <path stroke-miterlimit="1.45" d="M725.0003 458.6628 L737.9135 460.1632 L733.652 456.1833 L735.1584 450.5502 Z" clip-path="url(#clipPath2)" stroke-linecap="butt" stroke="none"/>
      <path fill="none" stroke-miterlimit="1.45" d="M344.5 667.0144 L344.5 642.9935" clip-path="url(#clipPath2)" stroke-linecap="butt"/>
      <path stroke-miterlimit="1.45" d="M344.5 634.9935 L339.5 646.9935 L344.5 643.9935 L349.5 646.9935 Z" clip-path="url(#clipPath2)" stroke-linecap="butt" stroke="none"/>
      <path fill="none" stroke-miterlimit="1.45" d="M503.9919 399.6719 L424.8326 414.2281" clip-path="url(#clipPath2)" stroke-linecap="butt"/>
      <path stroke-miterlimit="1.45" d="M416.9645 415.6749 L429.6709 418.4222 L425.8161 414.0472 L427.8623 408.5871 Z" clip-path="url(#clipPath2)" stroke-linecap="butt" stroke="none"/>
      <path fill="none" stroke-miterlimit="1.45" d="M669.0081 399.6719 L748.1674 414.2281" clip-path="url(#clipPath2)" stroke-linecap="butt"/>
      <path stroke-miterlimit="1.45" d="M756.0355 415.6749 L745.1377 408.5871 L747.184 414.0472 L743.3292 418.4222 Z" clip-path="url(#clipPath2)" stroke-linecap="butt" stroke="none"/>
    </g>
  </g>
</svg>
